<svg width="631" height="240" viewBox="0 0 631 240" fill="none" xmlns="http://www.w3.org/2000/svg">
<g opacity="0.06">
<path d="M363.403 70.9969C294.804 52.616 222.118 49.3275 161.613 65.536C101.113 81.7432 64.093 114.436 53.4054 154.323L40.6752 201.832C30.6496 239.248 43.8378 282.746 82.0237 324.538L82.0253 324.54C84.5745 327.316 87.226 330.094 90.0025 332.881L90.0032 332.882C134.298 377.172 198.89 410.667 267.489 429.048C336.087 447.428 408.773 450.717 469.278 434.508C529.778 418.301 566.798 385.607 577.485 345.721L590.215 298.211C600.909 258.301 585.196 211.478 540.912 167.169L540.766 167.022L540.74 167.016C496.45 122.799 431.925 89.3575 363.403 70.9969Z" fill="#408573" stroke="#2A554A" stroke-width="1.53746"/>
<path d="M363.432 70.9843C294.833 52.6033 222.146 49.3209 161.637 65.5413C101.134 81.7604 64.1156 114.447 53.4232 154.352C42.7308 194.256 58.446 241.074 102.734 285.371C147.026 329.673 211.616 363.174 280.215 381.555C348.813 399.936 421.501 403.218 482.009 386.998C542.512 370.779 579.53 338.091 590.222 298.186C600.915 258.282 585.2 211.466 540.912 167.168C496.621 122.866 432.03 89.3653 363.432 70.9843Z" fill="#50AF95" stroke="#2A554A" stroke-width="1.53746"/>
<path d="M353.519 107.946C301.306 93.9551 245.971 91.4516 199.892 103.799C153.819 116.144 125.582 141.051 117.423 171.501C109.264 201.951 121.264 237.64 154.992 271.369C188.723 305.101 237.897 330.6 290.111 344.591C342.324 358.581 397.659 361.085 443.738 348.738C489.811 336.392 518.048 311.485 526.207 281.035C534.366 250.584 522.366 214.896 488.638 181.168C454.907 147.436 405.733 121.936 353.519 107.946Z" fill="#408573" stroke="#2A554A" stroke-width="1.53746"/>
<path d="M344.839 124.551C291.351 110.365 236.133 107.766 195.561 119.268C146.741 130.237 121.743 155.655 116.334 185.193C110.935 214.679 125.122 247.962 153.987 274.553C188.347 306.206 237.887 330.682 290.186 344.695C342.485 358.708 397.625 362.282 443.208 352.05L443.222 352.046L443.237 352.043C482.633 341.556 509.93 321.1 518.791 294.296C527.663 267.458 517.946 234.603 484.099 199.591C450.222 164.548 398.333 138.738 344.839 124.551Z" fill="#50AF95" stroke="#2A554A" stroke-width="1.53746"/>
<path d="M484.333 376.749C363.645 409.079 194.155 363.665 105.801 275.321C63.3897 232.921 47.3829 188.328 55.5351 149.827C42.3317 190.361 57.3121 238.88 103.255 284.823C191.608 373.166 361.099 418.581 481.787 386.25C544.546 369.434 581.779 334.905 590.611 293.2C578.421 330.619 542.262 361.234 484.333 376.749Z" fill="#408573"/>
<path d="M53.013 159.335C65.2036 121.916 101.362 91.3012 159.291 75.7871C279.98 43.4563 449.47 88.8711 537.824 177.215C580.235 219.615 596.242 264.207 588.089 302.709C601.293 262.175 586.312 213.656 540.37 167.713C452.016 79.3692 282.526 33.9544 161.837 66.2852C99.0782 83.102 61.8455 117.63 53.013 159.335Z" fill="#7BC1AC"/>
<path fill-rule="evenodd" clip-rule="evenodd" d="M314.225 265.987C315.464 265.734 321.81 264.379 335.359 260.753C346.14 257.863 353.552 255.571 356.136 254.762C396.452 242.268 422.232 228.629 415.866 222.264C409.501 215.9 373.12 218.932 330.111 228.744L350.856 249.477C348.283 250.34 340.809 252.768 330.028 255.659C317.085 259.116 310.232 260.462 308.969 260.709L288.247 239.983C248.033 252.478 222.337 266.088 228.655 272.44C235.003 278.775 271.324 275.777 314.225 265.987ZM286.077 237.822L267.526 219.256L209.513 234.798L181.224 206.494L339.138 164.176L367.433 192.457L309.444 208.006L328.001 226.549C376.716 215.491 419.002 212.844 427.198 221.023C435.394 229.203 406.777 245.544 361.212 259.763L420.666 319.23L378.755 330.456L319.277 270.982C270.676 281.994 228.438 284.654 220.266 276.481C212.069 268.302 240.626 251.995 286.083 237.799L286.077 237.822Z" fill="#408573"/>
<path fill-rule="evenodd" clip-rule="evenodd" d="M311.382 257.593C312.621 257.339 318.967 255.984 332.516 252.358C343.297 249.468 350.708 247.176 353.293 246.367C393.609 233.873 419.389 220.234 413.023 213.869C406.658 207.505 370.277 210.537 327.268 220.349L348.013 241.082C345.439 241.945 337.966 244.373 327.185 247.264C314.242 250.721 307.388 252.067 306.126 252.314L285.404 231.588C245.19 244.083 219.494 257.693 225.812 264.045C232.16 270.38 268.481 267.382 311.382 257.593ZM283.233 229.427L264.683 210.861L206.67 226.403L178.38 198.099L336.294 155.781L364.59 184.062L306.601 199.611L325.157 218.154C373.872 207.096 416.158 204.449 424.355 212.628C432.551 220.808 403.934 237.149 358.369 251.368L417.823 310.835L375.911 322.061L316.434 262.587C267.833 273.599 225.595 276.259 217.422 268.086C209.226 259.907 237.783 243.6 283.24 229.404L283.233 229.427Z" fill="white"/>
</g>
</svg>
