<svg width="1820" height="1820" viewBox="0 0 1820 1820" fill="none" xmlns="http://www.w3.org/2000/svg">
  <g stroke="white" stroke-width="2.5" fill="none">
    <!-- Topographic/ripple wave pattern — concentric flowing curves radiating outward -->
    <!-- Inner rings -->
    <path d="M910,1100 Q830,1060 790,980 Q750,900 790,820 Q830,740 910,710 Q990,680 1050,730 Q1110,780 1110,860 Q1110,940 1050,1010 Q990,1080 910,1100Z" />
    <path d="M910,1180 Q790,1130 730,1020 Q670,910 720,790 Q770,670 890,620 Q1010,570 1110,640 Q1210,710 1220,840 Q1230,970 1150,1070 Q1070,1170 910,1180Z" />
    <path d="M910,1280 Q740,1210 650,1060 Q560,910 620,740 Q680,570 850,490 Q1020,410 1180,500 Q1340,590 1360,780 Q1380,970 1270,1130 Q1160,1290 910,1280Z" />
    <!-- Mid rings -->
    <path d="M910,1400 Q660,1290 540,1080 Q420,870 510,640 Q600,410 810,310 Q1020,210 1240,330 Q1460,450 1500,680 Q1540,910 1400,1130 Q1260,1350 910,1400Z" />
    <path d="M910,1520 Q580,1370 430,1100 Q280,830 400,540 Q520,250 770,130 Q1020,10 1300,160 Q1580,310 1640,580 Q1700,850 1530,1140 Q1360,1430 910,1520Z" />
    <path d="M910,1640 Q500,1450 320,1120 Q140,790 290,440 Q440,90 730,-50 Q1020,-190 1360,-10 Q1700,170 1780,480 Q1860,790 1660,1150 Q1460,1510 910,1640Z" />
    <!-- Outer rings -->
    <path d="M910,1760 Q420,1530 210,1140 Q0,750 180,340 Q360,-70 690,-230 Q1020,-390 1420,-180 Q1820,30 1920,380 Q2020,730 1790,1160 Q1560,1590 910,1760Z" />
    <path d="M910,1880 Q340,1610 100,1160 Q-140,710 70,240 Q280,-230 650,-410 Q1020,-590 1480,-350 Q1940,-110 2060,280 Q2180,670 1920,1170 Q1660,1670 910,1880Z" />
  </g>
</svg>
