<svg width="138" height="22" viewBox="0 0 138 22" fill="none" xmlns="http://www.w3.org/2000/svg">
<path d="M28.4608 18.8157C28.4605 20.5743 22.0895 22 14.2304 22C6.37132 22 0.000231811 20.5743 0 18.8157V14.7482C0.159563 14.8542 0.325309 14.951 0.49252 15.0395C1.36455 15.5008 2.53841 15.8755 3.87585 16.1748C6.5725 16.7782 10.2327 17.1398 14.2304 17.1398C18.228 17.1398 21.8883 16.7782 24.5849 16.1748C25.9224 15.8755 27.0962 15.5008 27.9683 15.0395C28.1355 14.951 28.3012 14.8542 28.4608 14.7482V18.8157Z" fill="#1BC33A"/>
<path d="M3.34228 10.5193C3.43612 10.6729 3.54295 10.811 3.65395 10.9324C3.98546 11.2949 4.41058 11.5802 4.8453 11.8102C5.71733 12.2715 6.89122 12.646 8.22863 12.9453C10.9253 13.5487 14.5855 13.9103 18.5832 13.9103C22.2623 13.9103 25.6556 13.6037 28.2751 13.0845C27.1746 14.5981 21.3057 15.7539 14.2304 15.7539C6.37132 15.7539 0.000241943 14.3282 0 12.5696C0 11.7886 1.25671 11.0733 3.34228 10.5193Z" fill="#1BC33A"/>
<path d="M32.8136 9.43038C32.8136 11.189 26.4424 12.6146 18.5832 12.6146C10.724 12.6146 4.35278 11.189 4.35278 9.43038V5.36303C4.51235 5.4691 4.67809 5.56588 4.8453 5.65434C5.71733 6.11567 6.8912 6.49013 8.22863 6.7894C10.9253 7.39282 14.5855 7.75445 18.5832 7.75445C22.5808 7.75445 26.2411 7.39281 28.9377 6.7894C30.2751 6.49013 31.449 6.11566 32.321 5.65434C32.4883 5.56588 32.654 5.4691 32.8136 5.36303V9.43038Z" fill="#1BC33A"/>
<path d="M18.5832 0C26.4424 0 32.8135 1.42564 32.8136 3.18425C32.8136 4.94288 26.4424 6.36851 18.5832 6.36851C10.724 6.36851 4.35278 4.94288 4.35278 3.18425C4.35284 1.42564 10.724 2.07391e-06 18.5832 0Z" fill="#1BC33A"/>
<path d="M124.602 12.1824C124.602 10.8394 124.873 9.66438 125.416 8.65718C125.96 7.63399 126.703 6.84261 127.646 6.28306C128.604 5.7235 129.675 5.44372 130.857 5.44372C131.88 5.44372 132.831 5.68353 133.71 6.16315C134.589 6.62678 135.26 7.2423 135.723 8.00969V1.0552H137.928V18.8011H135.723V16.3311C135.292 17.1145 134.652 17.762 133.806 18.2736C132.959 18.7692 131.968 19.017 130.833 19.017C129.667 19.017 128.604 18.7292 127.646 18.1537C126.703 17.5781 125.96 16.7707 125.416 15.7316C124.873 14.6924 124.602 13.5093 124.602 12.1824ZM135.723 12.2064C135.723 11.2152 135.523 10.3518 135.124 9.61642C134.724 8.881 134.181 8.32144 133.494 7.93775C132.823 7.53806 132.08 7.33822 131.265 7.33822C130.45 7.33822 129.707 7.53007 129.036 7.91377C128.365 8.29746 127.829 8.85702 127.43 9.59244C127.03 10.3279 126.831 11.1912 126.831 12.1824C126.831 13.1896 127.03 14.0689 127.43 14.8203C127.829 15.5557 128.365 16.1233 129.036 16.5229C129.707 16.9066 130.45 17.0985 131.265 17.0985C132.08 17.0985 132.823 16.9066 133.494 16.5229C134.181 16.1233 134.724 15.5557 135.124 14.8203C135.523 14.0689 135.723 13.1976 135.723 12.2064Z" fill="#111111"/>
<path d="M117.608 5.41972C119.206 5.41972 120.5 5.90733 121.491 6.88256C122.482 7.8418 122.977 9.2327 122.977 11.0553V18.8011H120.82V11.367C120.82 10.056 120.492 9.05684 119.837 8.36938C119.182 7.66594 118.287 7.31422 117.153 7.31422C116.002 7.31422 115.083 7.67393 114.396 8.39336C113.725 9.11279 113.39 10.16 113.39 11.5349V18.8011H111.208V5.65953H113.39V7.53005C113.821 6.85858 114.404 6.33899 115.139 5.97128C115.89 5.60357 116.713 5.41972 117.608 5.41972Z" fill="#111111"/>
<path d="M109.453 11.7267C109.453 12.1424 109.429 12.5821 109.381 13.0457H98.8829C98.9628 14.3407 99.4022 15.3559 100.201 16.0913C101.016 16.8107 101.999 17.1704 103.149 17.1704C104.092 17.1704 104.875 16.9546 105.498 16.5229C106.137 16.0753 106.585 15.4838 106.841 14.7483H109.189C108.838 16.0113 108.135 17.0425 107.08 17.8419C106.026 18.6253 104.715 19.017 103.149 19.017C101.903 19.017 100.784 18.7372 99.7937 18.1776C98.819 17.6181 98.052 16.8267 97.4927 15.8035C96.9334 14.7643 96.6538 13.5653 96.6538 12.2064C96.6538 10.8474 96.9255 9.65638 97.4687 8.63319C98.012 7.61 98.771 6.82662 99.7458 6.28305C100.736 5.72349 101.871 5.44372 103.149 5.44372C104.396 5.44372 105.498 5.7155 106.457 6.25907C107.416 6.80264 108.151 7.55404 108.662 8.51328C109.189 9.45654 109.453 10.5277 109.453 11.7267ZM107.2 11.2711C107.2 10.4398 107.016 9.72832 106.649 9.13679C106.281 8.52927 105.778 8.07363 105.139 7.76987C104.516 7.45012 103.82 7.29025 103.053 7.29025C101.951 7.29025 101.008 7.64197 100.225 8.34542C99.4581 9.04886 99.0187 10.0241 98.9069 11.2711H107.2Z" fill="#111111"/>
<path d="M90.7196 19.017C89.7129 19.017 88.8101 18.8491 88.0111 18.5134C87.2122 18.1616 86.581 17.682 86.1176 17.0745C85.6542 16.451 85.3985 15.7396 85.3506 14.9402H87.6036C87.6676 15.5957 87.9712 16.1312 88.5145 16.5469C89.0737 16.9626 89.8008 17.1704 90.6956 17.1704C91.5265 17.1704 92.1817 16.9866 92.6611 16.6189C93.1404 16.2512 93.3801 15.7875 93.3801 15.228C93.3801 14.6524 93.1244 14.2288 92.6131 13.957C92.1018 13.6692 91.3108 13.3894 90.2402 13.1176C89.2655 12.8618 88.4665 12.606 87.8433 12.3502C87.2361 12.0785 86.7088 11.6868 86.2614 11.1752C85.83 10.6476 85.6142 9.96014 85.6142 9.11281C85.6142 8.44134 85.814 7.82583 86.2135 7.26627C86.6129 6.70671 87.1802 6.26706 87.9152 5.94732C88.6503 5.61158 89.4892 5.44372 90.432 5.44372C91.8861 5.44372 93.0605 5.81142 93.9554 6.54684C94.8502 7.28226 95.3296 8.28946 95.3935 9.56845H93.2123C93.1644 8.88099 92.8848 8.32943 92.3734 7.91376C91.8781 7.49809 91.2069 7.29025 90.3601 7.29025C89.5771 7.29025 88.9539 7.45812 88.4905 7.79385C88.0271 8.12959 87.7954 8.56924 87.7954 9.11281C87.7954 9.54447 87.9312 9.90418 88.2029 10.192C88.4905 10.4637 88.842 10.6876 89.2575 10.8634C89.6889 11.0233 90.2802 11.2071 91.0312 11.415C91.9739 11.6708 92.741 11.9266 93.3322 12.1824C93.9234 12.4222 94.4268 12.7899 94.8422 13.2855C95.2736 13.7811 95.4974 14.4286 95.5133 15.228C95.5133 15.9474 95.3136 16.5949 94.9141 17.1704C94.5146 17.746 93.9474 18.2016 93.2123 18.5373C92.4933 18.8571 91.6624 19.017 90.7196 19.017Z" fill="#111111"/>
<path d="M78.5132 5.32381C80.0951 5.32381 81.3735 5.82741 82.3482 6.83462C83.3229 7.82583 83.8103 9.21673 83.8103 11.0073V18.8011H80.4547V11.4629C80.4547 10.4078 80.191 9.60043 79.6637 9.04087C79.1364 8.46532 78.4173 8.17755 77.5065 8.17755C76.5797 8.17755 75.8447 8.46532 75.3014 9.04087C74.7741 9.60043 74.5104 10.4078 74.5104 11.4629V18.8011H71.1548V5.51566H74.5104V7.17035C74.9578 6.59481 75.5251 6.14716 76.2122 5.82742C76.9153 5.49168 77.6823 5.32381 78.5132 5.32381Z" fill="#111111"/>
<path d="M67.3157 3.9329C66.7245 3.9329 66.2291 3.74905 65.8296 3.38134C65.4461 2.99764 65.2544 2.52602 65.2544 1.96646C65.2544 1.4069 65.4461 0.943272 65.8296 0.575563C66.2291 0.191867 66.7245 1.94311e-05 67.3157 1.94311e-05C67.9069 1.94311e-05 68.3943 0.191867 68.7778 0.575563C69.1773 0.943272 69.377 1.4069 69.377 1.96646C69.377 2.52602 69.1773 2.99764 68.7778 3.38134C68.3943 3.74905 67.9069 3.9329 67.3157 3.9329ZM68.9695 5.51565V18.8011H65.6139V5.51565H68.9695Z" fill="#111111"/>
<path d="M57.3426 19.0169C56.0643 19.0169 54.9138 18.7372 53.8911 18.1776C52.8685 17.6021 52.0615 16.7947 51.4703 15.7555C50.895 14.7164 50.6074 13.5173 50.6074 12.1584C50.6074 10.7995 50.903 9.60041 51.4943 8.56123C52.1015 7.52205 52.9244 6.72269 53.963 6.16313C55.0017 5.58759 56.1602 5.29982 57.4385 5.29982C58.7168 5.29982 59.8753 5.58759 60.914 6.16313C61.9526 6.72269 62.7676 7.52205 63.3588 8.56123C63.966 9.60041 64.2696 10.7995 64.2696 12.1584C64.2696 13.5173 63.958 14.7164 63.3348 15.7555C62.7276 16.7947 61.8967 17.6021 60.8421 18.1776C59.8034 18.7372 58.6369 19.0169 57.3426 19.0169ZM57.3426 16.0913C57.9498 16.0913 58.5171 15.9474 59.0444 15.6596C59.5877 15.3558 60.0191 14.9082 60.3387 14.3167C60.6583 13.7251 60.8181 13.0057 60.8181 12.1584C60.8181 10.8954 60.4825 9.92815 59.8114 9.25668C59.1563 8.56923 58.3493 8.2255 57.3906 8.2255C56.4318 8.2255 55.6249 8.56923 54.9697 9.25668C54.3306 9.92815 54.011 10.8954 54.011 12.1584C54.011 13.4214 54.3226 14.3966 54.9458 15.0841C55.5849 15.7555 56.3839 16.0913 57.3426 16.0913Z" fill="#111111"/>
<path d="M37.2881 12.1584C37.2881 10.7835 37.5677 9.58442 38.127 8.56123C38.6863 7.52205 39.4613 6.72269 40.452 6.16313C41.4427 5.58759 42.5772 5.29982 43.8555 5.29982C45.5014 5.29982 46.8596 5.71549 47.9302 6.54683C49.0168 7.36218 49.7438 8.51327 50.1114 10.0001H46.4921C46.3003 9.42455 45.9728 8.9769 45.5094 8.65716C45.0619 8.32142 44.5027 8.15355 43.8316 8.15355C42.8728 8.15355 42.1138 8.50528 41.5545 9.20872C40.9952 9.89617 40.7156 10.8794 40.7156 12.1584C40.7156 13.4214 40.9952 14.4046 41.5545 15.108C42.1138 15.7955 42.8728 16.1392 43.8316 16.1392C45.1898 16.1392 46.0766 15.5317 46.4921 14.3167H50.1114C49.7438 15.7555 49.0168 16.8986 47.9302 17.746C46.8436 18.5933 45.4854 19.0169 43.8555 19.0169C42.5772 19.0169 41.4427 18.7372 40.452 18.1776C39.4613 17.6021 38.6863 16.8027 38.127 15.7795C37.5677 14.7403 37.2881 13.5333 37.2881 12.1584Z" fill="#111111"/>
</svg>
