<svg width="1080" height="1080" viewBox="0 0 1080 1080" fill="none" xmlns="http://www.w3.org/2000/svg">
<rect width="1080" height="1080" fill="white"/>
<path d="M774.368 692.052C774.364 726.264 650.489 754 497.684 754C344.879 754 221.005 726.264 221 692.052V612.919C224.102 614.983 227.325 616.865 230.576 618.586C247.531 627.561 270.355 634.85 296.359 640.673C348.79 652.412 419.957 659.447 497.684 659.447C575.411 659.447 646.578 652.412 699.009 640.673C725.014 634.85 747.837 627.562 764.792 618.586C768.043 616.865 771.266 614.983 774.368 612.919V692.052Z" fill="#1BC33A"/>
<path d="M285.985 530.649C287.809 533.637 289.886 536.323 292.044 538.684C298.49 545.736 306.756 551.288 315.208 555.762C332.163 564.737 354.987 572.022 380.991 577.844C433.422 589.584 504.589 596.619 582.316 596.619C653.851 596.619 719.827 590.653 770.758 580.553C749.361 610 635.25 632.484 497.684 632.484C344.879 632.484 221.005 604.749 221 570.536C221 555.341 245.435 541.426 285.985 530.649Z" fill="#1BC33A"/>
<path d="M859 509.464C859 543.677 735.124 571.412 582.316 571.412C429.508 571.412 305.632 543.677 305.632 509.464V430.335C308.734 432.399 311.957 434.282 315.208 436.003C332.163 444.978 354.987 452.262 380.991 458.085C433.422 469.824 504.589 476.859 582.316 476.859C660.043 476.859 731.21 469.824 783.641 458.085C809.645 452.263 832.469 444.977 849.424 436.003C852.675 434.282 855.898 432.399 859 430.335V509.464Z" fill="#1BC33A"/>
<path d="M582.316 326C735.123 326 858.999 353.735 859 387.948C859 422.162 735.124 449.896 582.316 449.896C429.508 449.896 305.632 422.161 305.632 387.948C305.633 353.735 429.509 326 582.316 326Z" fill="#1BC33A"/>
</svg>
