<svg width="804" height="614" viewBox="0 0 804 614" fill="none" xmlns="http://www.w3.org/2000/svg">
<path d="M941.94 584.775C941.932 642.888 731.074 690 470.97 690C210.866 690 0.00767202 642.888 0 584.775V450.36C5.2809 453.865 10.7664 457.063 16.3005 459.987C45.1611 475.232 84.0114 487.613 128.275 497.503C217.524 517.442 338.664 529.393 470.97 529.393C603.277 529.393 724.416 517.443 813.665 497.503C857.929 487.613 896.779 475.232 925.64 459.987C931.174 457.063 936.659 453.865 941.94 450.36V584.775Z" fill="#27272A"/>
<path d="M110.616 310.616C113.722 315.691 117.258 320.254 120.931 324.265C131.903 336.244 145.973 345.674 160.361 353.274C189.221 368.518 228.072 380.893 272.335 390.783C361.584 410.723 482.723 422.673 615.03 422.673C736.796 422.673 849.101 412.539 935.795 395.383C899.374 445.401 705.135 483.594 470.97 483.594C210.866 483.594 0.00800737 436.482 0 378.369C0 352.559 41.5923 328.922 110.616 310.616Z" fill="#27272A"/>
<path d="M1086 274.631C1086 332.746 875.139 379.856 615.03 379.856C354.921 379.856 144.06 332.746 144.06 274.631V140.224C149.341 143.729 154.826 146.927 160.361 149.85C189.221 165.095 228.072 177.469 272.335 187.359C361.584 207.299 482.723 219.249 615.03 219.249C747.337 219.249 868.476 207.299 957.725 187.359C1001.99 177.469 1040.84 165.095 1069.7 149.85C1075.23 146.927 1080.72 143.729 1086 140.224V274.631Z" fill="#27272A"/>
<path d="M615.03 -37C875.138 -37 1086 10.1108 1086 68.2251C1086 126.34 875.139 173.45 615.03 173.45C354.921 173.45 144.06 126.34 144.06 68.2251C144.062 10.1109 354.922 -36.9999 615.03 -37Z" fill="#27272A"/>
</svg>
